<svg id="svg" version="1.1" xmlns="http://www.w3.org/2000/svg" width="400"
     height="63.43130553656869" viewBox="0, 0, 400,63.43130553656869">
    <g id="svgg">
        <path id="path0"
              d="M155.764 0.186 C 154.579 0.261,153.533 0.400,153.439 0.495 C 153.344 0.589,153.019 0.667,152.717 0.667 C 152.414 0.667,152.167 0.742,152.167 0.833 C 152.167 0.925,151.960 1.000,151.708 0.999 C 151.277 0.998,149.681 1.480,149.500 1.666 C 149.454 1.713,148.985 1.895,148.458 2.069 C 147.931 2.244,147.500 2.444,147.500 2.514 C 147.500 2.583,147.275 2.690,147.000 2.750 C 146.725 2.810,146.500 2.927,146.500 3.010 C 146.500 3.093,146.313 3.207,146.083 3.265 C 145.854 3.322,145.667 3.428,145.667 3.499 C 145.667 3.570,145.535 3.675,145.375 3.733 C 144.742 3.962,144.202 4.356,143.456 5.131 C 142.039 6.606,141.454 7.167,141.334 7.167 C 141.254 7.167,141.137 7.330,141.074 7.529 C 141.011 7.729,140.781 8.085,140.563 8.319 C 140.345 8.554,140.167 8.835,140.167 8.943 C 140.167 9.051,140.110 9.164,140.042 9.194 C 139.845 9.282,139.333 10.273,139.333 10.567 C 139.333 10.714,139.264 10.833,139.180 10.833 C 139.096 10.833,138.977 11.058,138.917 11.333 C 138.856 11.608,138.738 11.833,138.653 11.833 C 138.569 11.833,138.500 11.983,138.500 12.167 C 138.500 12.350,138.430 12.500,138.344 12.500 C 138.257 12.500,138.136 12.837,138.075 13.250 C 138.013 13.662,137.896 14.000,137.814 14.000 C 137.733 14.000,137.667 14.188,137.667 14.417 C 137.667 14.646,137.598 14.833,137.514 14.833 C 137.430 14.833,137.309 15.397,137.244 16.086 C 137.180 16.775,137.061 17.379,136.980 17.429 C 136.788 17.548,136.788 24.167,136.980 24.167 C 137.061 24.167,137.180 24.729,137.245 25.417 C 137.309 26.104,137.430 26.667,137.514 26.667 C 137.598 26.667,137.667 26.967,137.667 27.333 C 137.667 27.700,137.733 28.000,137.814 28.000 C 137.896 28.000,138.013 28.337,138.075 28.750 C 138.136 29.162,138.257 29.500,138.344 29.500 C 138.430 29.500,138.500 29.650,138.500 29.833 C 138.500 30.017,138.570 30.167,138.655 30.167 C 138.741 30.167,138.864 30.334,138.929 30.538 C 139.068 30.977,141.571 33.447,142.022 33.590 C 142.193 33.645,142.333 33.759,142.333 33.845 C 142.333 33.930,142.446 34.000,142.583 34.000 C 142.721 34.000,142.833 34.074,142.833 34.163 C 142.833 34.253,143.021 34.374,143.250 34.432 C 143.479 34.489,143.667 34.600,143.667 34.677 C 143.667 34.755,143.929 34.867,144.250 34.928 C 144.571 34.988,144.833 35.104,144.833 35.185 C 144.833 35.267,144.946 35.333,145.083 35.333 C 145.221 35.333,145.333 35.405,145.333 35.492 C 145.333 35.580,145.596 35.701,145.917 35.761 C 146.237 35.821,146.500 35.937,146.500 36.019 C 146.500 36.100,146.604 36.167,146.731 36.167 C 146.858 36.167,147.177 36.279,147.439 36.416 C 147.702 36.553,148.085 36.665,148.292 36.666 C 148.498 36.666,148.667 36.742,148.667 36.833 C 148.667 36.925,148.892 37.000,149.167 37.000 C 149.442 37.000,149.667 37.071,149.667 37.158 C 149.667 37.246,150.117 37.368,150.667 37.430 C 151.217 37.492,151.667 37.604,151.667 37.678 C 151.667 37.752,152.192 37.865,152.833 37.928 C 153.475 37.991,154.000 38.108,154.000 38.188 C 154.000 38.268,154.337 38.333,154.750 38.333 C 155.162 38.333,155.500 38.400,155.500 38.482 C 155.500 38.564,156.175 38.685,157.000 38.750 C 157.825 38.815,158.500 38.936,158.500 39.018 C 158.500 39.100,158.800 39.167,159.167 39.167 C 159.533 39.167,159.833 39.236,159.833 39.320 C 159.833 39.404,160.321 39.526,160.917 39.589 C 161.512 39.653,162.000 39.772,162.000 39.853 C 162.000 39.934,162.262 40.000,162.583 40.000 C 162.904 40.000,163.167 40.065,163.167 40.145 C 163.167 40.225,163.470 40.339,163.841 40.398 C 164.211 40.458,164.661 40.580,164.841 40.670 C 165.020 40.760,165.307 40.903,165.479 40.989 C 165.652 41.074,166.064 41.195,166.396 41.257 C 166.728 41.319,167.000 41.431,167.000 41.505 C 167.000 41.579,167.225 41.690,167.500 41.750 C 167.775 41.810,168.000 41.911,168.000 41.974 C 168.000 42.037,168.300 42.218,168.667 42.377 C 169.033 42.536,169.333 42.741,169.333 42.833 C 169.333 42.925,169.442 43.000,169.576 43.000 C 169.954 43.000,171.343 44.504,171.447 45.029 C 171.499 45.288,171.607 45.500,171.688 45.500 C 171.890 45.500,171.872 46.290,171.667 46.417 C 171.575 46.473,171.500 46.668,171.500 46.848 C 171.500 47.029,171.387 47.220,171.250 47.273 C 171.112 47.326,171.000 47.455,171.000 47.561 C 171.000 47.827,170.200 48.667,169.947 48.667 C 169.833 48.667,169.632 48.816,169.501 48.999 C 169.369 49.182,169.014 49.378,168.712 49.435 C 168.410 49.491,168.122 49.604,168.072 49.686 C 168.021 49.767,167.760 49.833,167.490 49.833 C 167.221 49.833,167.000 49.908,167.000 50.000 C 167.000 50.103,166.139 50.167,164.750 50.167 C 163.361 50.167,162.500 50.103,162.500 50.000 C 162.500 49.908,162.092 49.833,161.593 49.833 C 161.094 49.833,160.647 49.769,160.599 49.691 C 160.550 49.613,160.007 49.502,159.392 49.445 C 158.777 49.387,158.231 49.282,158.179 49.212 C 158.126 49.141,157.858 48.973,157.583 48.838 C 156.678 48.394,155.457 47.157,155.240 46.464 C 155.175 46.255,155.049 46.036,154.959 45.979 C 154.870 45.922,154.758 45.528,154.710 45.104 C 154.662 44.680,154.558 44.333,154.478 44.333 C 154.399 44.333,154.333 44.033,154.333 43.667 C 154.333 43.300,154.258 43.000,154.167 43.000 C 154.075 43.000,154.000 42.813,154.000 42.583 L 154.000 42.167 145.000 42.167 L 136.000 42.167 136.000 43.669 C 136.000 44.495,136.071 45.301,136.159 45.461 C 136.246 45.620,136.363 46.180,136.420 46.706 C 136.477 47.231,136.593 47.705,136.678 47.757 C 136.764 47.810,136.833 48.036,136.833 48.260 C 136.833 48.484,136.899 48.667,136.979 48.667 C 137.059 48.667,137.174 48.910,137.233 49.207 C 137.366 49.870,137.708 50.667,137.861 50.667 C 137.923 50.667,138.023 50.892,138.083 51.167 C 138.144 51.442,138.262 51.667,138.347 51.667 C 138.431 51.667,138.500 51.817,138.500 52.000 C 138.500 52.183,138.569 52.333,138.653 52.333 C 138.738 52.333,138.856 52.558,138.917 52.833 C 138.977 53.108,139.087 53.333,139.162 53.333 C 139.236 53.333,139.344 53.521,139.402 53.750 C 139.459 53.979,139.580 54.167,139.670 54.167 C 139.760 54.167,139.833 54.279,139.833 54.417 C 139.833 54.554,139.908 54.667,140.000 54.667 C 140.092 54.667,140.167 54.791,140.167 54.942 C 140.167 55.094,140.467 55.504,140.833 55.852 C 141.200 56.201,141.500 56.533,141.500 56.589 C 141.500 56.724,141.947 57.167,142.084 57.167 C 142.144 57.167,142.490 57.467,142.853 57.833 C 143.216 58.200,143.614 58.500,143.739 58.500 C 143.863 58.500,144.005 58.606,144.055 58.736 C 144.142 58.964,144.779 59.380,145.375 59.599 C 145.535 59.657,145.667 59.766,145.667 59.840 C 145.667 59.913,145.892 60.023,146.167 60.083 C 146.442 60.144,146.667 60.259,146.667 60.339 C 146.667 60.419,146.929 60.534,147.250 60.594 C 147.571 60.655,147.833 60.770,147.833 60.852 C 147.833 60.933,148.021 61.000,148.250 61.000 C 148.479 61.000,148.667 61.074,148.667 61.165 C 148.667 61.255,148.967 61.377,149.333 61.436 C 149.700 61.495,150.000 61.608,150.000 61.688 C 150.000 61.768,150.188 61.833,150.417 61.833 C 150.646 61.833,150.833 61.900,150.833 61.981 C 150.833 62.062,151.246 62.180,151.750 62.243 C 152.254 62.306,152.667 62.427,152.667 62.512 C 152.667 62.597,152.952 62.667,153.300 62.667 C 153.648 62.667,154.005 62.733,154.092 62.814 C 154.811 63.485,170.203 63.487,170.908 62.817 C 170.995 62.734,171.352 62.667,171.700 62.667 C 172.048 62.667,172.333 62.600,172.333 62.519 C 172.333 62.438,172.821 62.320,173.417 62.256 C 174.012 62.192,174.500 62.071,174.500 61.987 C 174.500 61.902,174.688 61.833,174.917 61.833 C 175.146 61.833,175.333 61.765,175.333 61.682 C 175.333 61.599,175.708 61.480,176.167 61.417 C 176.625 61.354,177.000 61.234,177.000 61.151 C 177.000 61.068,177.188 61.000,177.417 61.000 C 177.646 61.000,177.833 60.928,177.833 60.841 C 177.833 60.753,178.096 60.633,178.417 60.572 C 178.737 60.512,179.000 60.404,179.000 60.333 C 179.000 60.261,179.205 60.151,179.457 60.088 C 179.708 60.025,179.952 59.923,179.998 59.862 C 180.126 59.693,180.712 59.336,181.042 59.226 C 181.202 59.172,181.333 59.062,181.333 58.981 C 181.333 58.900,181.475 58.833,181.649 58.833 C 181.822 58.833,182.008 58.721,182.060 58.583 C 182.113 58.446,182.258 58.333,182.381 58.333 C 182.505 58.333,182.770 58.146,182.969 57.917 C 183.168 57.688,183.417 57.500,183.521 57.500 C 183.625 57.500,183.945 57.256,184.230 56.958 C 184.516 56.660,185.031 56.207,185.375 55.950 C 185.719 55.693,186.000 55.407,186.000 55.314 C 186.000 55.221,186.262 54.897,186.583 54.594 C 186.904 54.292,187.167 53.959,187.167 53.855 C 187.167 53.752,187.240 53.667,187.330 53.667 C 187.420 53.667,187.541 53.479,187.598 53.250 C 187.656 53.021,187.766 52.833,187.844 52.833 C 187.921 52.833,188.034 52.571,188.094 52.250 C 188.155 51.929,188.270 51.667,188.352 51.667 C 188.433 51.667,188.500 51.485,188.500 51.264 C 188.500 51.042,188.574 50.836,188.665 50.806 C 188.756 50.775,188.879 50.281,188.939 49.708 C 188.999 49.135,189.112 48.667,189.190 48.667 C 189.269 48.667,189.333 48.334,189.333 47.927 C 189.333 47.519,189.410 47.139,189.505 47.081 C 189.727 46.943,189.713 37.833,189.490 37.833 C 189.404 37.833,189.333 37.571,189.333 37.250 C 189.333 36.929,189.268 36.667,189.188 36.667 C 189.108 36.667,188.995 36.367,188.936 36.000 C 188.877 35.633,188.755 35.333,188.665 35.333 C 188.574 35.333,188.500 35.221,188.500 35.083 C 188.500 34.946,188.425 34.833,188.333 34.833 C 188.242 34.833,188.167 34.726,188.167 34.595 C 188.167 34.464,188.064 34.255,187.939 34.129 C 187.813 34.004,187.658 33.736,187.594 33.534 C 187.530 33.332,187.408 33.167,187.322 33.167 C 187.237 33.167,187.167 33.082,187.167 32.979 C 187.167 32.789,184.603 30.167,184.418 30.167 C 184.364 30.167,184.117 29.979,183.869 29.750 C 183.622 29.521,183.334 29.333,183.228 29.333 C 183.122 29.333,182.992 29.221,182.940 29.083 C 182.887 28.946,182.691 28.833,182.505 28.833 C 182.319 28.833,182.167 28.764,182.167 28.680 C 182.167 28.596,181.942 28.477,181.667 28.417 C 181.392 28.356,181.167 28.255,181.167 28.193 C 181.167 28.069,179.935 27.500,179.666 27.500 C 179.574 27.500,179.500 27.443,179.500 27.374 C 179.500 27.195,178.632 26.834,177.925 26.719 C 177.595 26.666,177.285 26.557,177.236 26.478 C 177.187 26.398,176.926 26.333,176.657 26.333 C 176.387 26.333,176.167 26.264,176.167 26.179 C 176.167 26.094,175.754 25.972,175.250 25.909 C 174.746 25.846,174.333 25.737,174.333 25.667 C 174.333 25.596,173.846 25.487,173.250 25.423 C 172.654 25.359,172.167 25.238,172.167 25.153 C 172.167 25.069,171.904 25.000,171.583 25.000 C 171.262 25.000,171.000 24.931,171.000 24.847 C 171.000 24.762,170.512 24.641,169.917 24.577 C 169.321 24.513,168.833 24.395,168.833 24.314 C 168.833 24.233,168.571 24.167,168.250 24.167 C 167.929 24.167,167.667 24.096,167.667 24.010 C 167.667 23.924,167.142 23.802,166.500 23.739 C 165.858 23.675,165.333 23.558,165.333 23.478 C 165.333 23.399,165.086 23.333,164.783 23.333 C 164.481 23.333,164.162 23.262,164.074 23.174 C 163.986 23.086,163.296 22.963,162.541 22.900 C 161.785 22.837,161.167 22.721,161.167 22.643 C 161.167 22.564,160.810 22.498,160.375 22.496 C 159.940 22.494,159.283 22.413,158.917 22.316 C 158.550 22.219,158.044 22.099,157.792 22.051 C 157.540 22.002,157.333 21.904,157.333 21.832 C 157.333 21.761,157.146 21.656,156.917 21.598 C 156.688 21.541,156.500 21.420,156.500 21.330 C 156.500 21.240,156.419 21.167,156.320 21.167 C 156.002 21.167,154.706 19.715,154.386 19.000 C 154.325 18.862,154.204 18.703,154.118 18.645 C 153.744 18.393,153.955 16.393,154.404 15.944 C 154.640 15.708,154.833 15.455,154.833 15.380 C 154.833 15.247,155.317 14.949,155.875 14.738 C 156.035 14.677,156.167 14.562,156.167 14.481 C 156.167 14.400,156.310 14.333,156.486 14.333 C 156.662 14.333,156.831 14.259,156.861 14.168 C 156.892 14.078,157.385 13.954,157.958 13.895 C 158.531 13.835,159.000 13.722,159.000 13.643 C 159.000 13.564,160.162 13.500,161.583 13.500 C 163.004 13.500,164.167 13.564,164.167 13.643 C 164.167 13.722,164.635 13.835,165.208 13.895 C 165.781 13.954,166.275 14.078,166.306 14.168 C 166.336 14.259,166.461 14.333,166.584 14.333 C 167.194 14.333,169.667 16.329,169.667 16.822 C 169.667 16.920,169.739 17.000,169.828 17.000 C 169.916 17.000,170.038 17.375,170.099 17.833 C 170.160 18.292,170.275 18.667,170.355 18.667 C 170.435 18.667,170.500 19.111,170.500 19.653 C 170.500 21.299,170.077 21.167,175.351 21.167 C 178.339 21.167,180.000 21.107,180.000 21.000 C 180.000 20.893,181.528 20.833,184.250 20.833 L 188.500 20.833 188.500 19.500 C 188.500 18.767,188.434 18.167,188.353 18.167 C 188.272 18.167,188.153 17.679,188.089 17.083 C 188.026 16.487,187.913 16.000,187.839 16.000 C 187.765 16.000,187.654 15.664,187.593 15.254 C 187.531 14.844,187.410 14.464,187.324 14.411 C 187.237 14.357,187.167 14.131,187.167 13.907 C 187.167 13.683,187.098 13.500,187.015 13.500 C 186.931 13.500,186.812 13.200,186.750 12.833 C 186.688 12.467,186.569 12.167,186.485 12.167 C 186.402 12.167,186.333 11.979,186.333 11.750 C 186.333 11.521,186.258 11.333,186.167 11.333 C 186.075 11.333,186.000 11.251,186.000 11.150 C 186.000 10.841,185.447 9.758,185.217 9.617 C 185.098 9.543,185.000 9.396,185.000 9.289 C 185.000 9.182,184.852 8.942,184.670 8.756 C 183.418 7.469,181.604 5.687,181.214 5.362 C 180.059 4.397,179.728 4.158,179.417 4.060 C 179.233 4.002,179.046 3.907,179.000 3.849 C 178.818 3.617,177.997 3.167,177.756 3.167 C 177.615 3.167,177.500 3.098,177.500 3.013 C 177.500 2.929,177.275 2.810,177.000 2.750 C 176.725 2.690,176.500 2.589,176.500 2.526 C 176.500 2.362,175.226 1.833,174.832 1.833 C 174.649 1.833,174.500 1.758,174.500 1.667 C 174.500 1.575,174.354 1.500,174.177 1.500 C 173.999 1.500,173.809 1.429,173.756 1.343 C 173.703 1.257,173.323 1.136,172.913 1.074 C 172.502 1.013,172.167 0.896,172.167 0.814 C 172.167 0.733,171.919 0.667,171.617 0.667 C 171.314 0.667,170.995 0.597,170.908 0.512 C 170.440 0.053,161.023 -0.150,155.764 0.186 M93.417 0.500 C 93.360 0.592,92.609 0.667,91.740 0.667 C 90.875 0.667,90.167 0.731,90.167 0.810 C 90.167 0.888,89.398 1.005,88.458 1.069 C 87.519 1.134,86.679 1.257,86.592 1.343 C 86.505 1.429,86.223 1.500,85.967 1.500 C 85.710 1.500,85.500 1.566,85.500 1.647 C 85.500 1.728,85.012 1.847,84.417 1.911 C 83.821 1.974,83.333 2.096,83.333 2.180 C 83.333 2.264,83.146 2.333,82.917 2.333 C 82.688 2.333,82.500 2.401,82.500 2.484 C 82.500 2.567,82.125 2.687,81.667 2.750 C 81.208 2.813,80.833 2.933,80.833 3.016 C 80.833 3.099,80.660 3.167,80.449 3.167 C 80.237 3.167,79.918 3.277,79.740 3.411 C 79.562 3.546,79.285 3.658,79.125 3.661 C 78.965 3.664,78.833 3.736,78.833 3.820 C 78.833 3.904,78.608 4.023,78.333 4.083 C 78.058 4.144,77.833 4.262,77.833 4.347 C 77.833 4.431,77.683 4.500,77.500 4.500 C 77.317 4.500,77.167 4.575,77.167 4.667 C 77.167 4.758,77.052 4.833,76.911 4.833 C 76.771 4.833,76.613 4.946,76.560 5.083 C 76.508 5.221,76.330 5.333,76.167 5.333 C 76.003 5.333,75.826 5.446,75.773 5.583 C 75.720 5.721,75.576 5.833,75.452 5.833 C 75.328 5.833,75.066 6.002,74.869 6.208 C 74.260 6.846,73.894 7.167,73.772 7.167 C 73.561 7.167,72.667 8.173,72.667 8.411 C 72.667 8.539,72.521 8.691,72.342 8.747 C 72.163 8.804,71.971 8.997,71.914 9.175 C 71.857 9.354,71.747 9.500,71.669 9.500 C 71.511 9.500,70.167 11.455,70.167 11.686 C 70.167 11.767,70.100 11.833,70.019 11.833 C 69.937 11.833,69.821 12.096,69.761 12.417 C 69.701 12.737,69.598 13.000,69.533 13.000 C 69.394 13.000,69.066 13.723,68.908 14.377 C 68.846 14.630,68.730 14.878,68.648 14.928 C 68.567 14.978,68.500 15.165,68.500 15.343 C 68.500 15.521,68.429 15.667,68.342 15.667 C 68.254 15.667,68.132 16.117,68.070 16.667 C 68.008 17.217,67.892 17.667,67.812 17.667 C 67.732 17.667,67.667 18.042,67.667 18.500 C 67.667 18.958,67.592 19.333,67.500 19.333 C 67.405 19.333,67.333 19.833,67.333 20.500 L 67.333 21.667 69.653 21.667 C 70.928 21.667,71.997 21.731,72.028 21.809 C 72.058 21.887,74.840 22.004,78.208 22.068 L 84.333 22.185 84.333 21.509 C 84.333 21.137,84.399 20.833,84.478 20.833 C 84.558 20.833,84.675 20.308,84.739 19.667 C 84.802 19.025,84.924 18.500,85.010 18.500 C 85.096 18.500,85.167 18.350,85.167 18.167 C 85.167 17.983,85.234 17.833,85.315 17.833 C 85.397 17.833,85.514 17.635,85.575 17.392 C 85.718 16.819,87.653 14.885,88.225 14.741 C 88.468 14.680,88.667 14.564,88.667 14.482 C 88.667 14.400,88.817 14.333,89.000 14.333 C 89.183 14.333,89.333 14.263,89.333 14.177 C 89.333 14.091,89.858 13.968,90.500 13.905 C 91.142 13.842,91.667 13.725,91.667 13.645 C 91.667 13.565,92.604 13.500,93.750 13.500 C 94.896 13.500,95.833 13.564,95.833 13.642 C 95.833 13.720,96.490 13.834,97.292 13.896 C 98.094 13.957,98.775 14.081,98.806 14.170 C 98.836 14.260,99.042 14.333,99.264 14.333 C 99.485 14.333,99.667 14.405,99.667 14.492 C 99.667 14.580,99.929 14.701,100.250 14.761 C 100.571 14.821,100.834 14.918,100.835 14.977 C 100.836 15.035,101.132 15.225,101.493 15.397 C 101.853 15.570,102.187 15.814,102.235 15.939 C 102.284 16.064,102.470 16.167,102.650 16.167 C 102.830 16.167,103.021 16.303,103.074 16.471 C 103.127 16.638,103.315 16.930,103.492 17.120 C 103.882 17.538,104.500 18.664,104.500 18.956 C 104.500 19.072,104.575 19.167,104.667 19.167 C 104.758 19.167,104.833 19.429,104.833 19.750 C 104.833 20.071,104.908 20.333,105.000 20.333 C 105.100 20.333,105.167 21.000,105.167 22.000 C 105.167 23.000,105.100 23.667,105.000 23.667 C 104.908 23.667,104.833 23.957,104.833 24.313 C 104.833 25.446,105.022 25.417,97.802 25.417 C 93.107 25.417,91.289 25.469,91.202 25.608 C 91.129 25.725,90.230 25.846,88.871 25.921 C 87.655 25.988,86.619 26.108,86.570 26.188 C 86.521 26.268,86.039 26.333,85.500 26.333 C 84.961 26.333,84.478 26.400,84.427 26.483 C 84.377 26.565,83.735 26.685,83.001 26.750 C 82.267 26.815,81.667 26.935,81.667 27.017 C 81.667 27.099,81.404 27.167,81.083 27.167 C 80.762 27.167,80.500 27.233,80.500 27.314 C 80.500 27.395,80.087 27.513,79.583 27.576 C 79.079 27.639,78.667 27.760,78.667 27.845 C 78.667 27.930,78.479 28.000,78.250 28.000 C 78.021 28.000,77.833 28.065,77.833 28.145 C 77.833 28.225,77.548 28.336,77.199 28.392 C 76.849 28.448,76.343 28.598,76.074 28.726 C 75.804 28.854,75.340 29.061,75.042 29.187 C 74.744 29.312,74.500 29.471,74.500 29.541 C 74.500 29.610,74.426 29.667,74.334 29.667 C 74.050 29.667,72.833 30.239,72.833 30.373 C 72.833 30.443,72.726 30.500,72.595 30.500 C 72.465 30.500,72.210 30.688,72.030 30.917 C 71.850 31.146,71.607 31.333,71.490 31.333 C 71.279 31.333,69.333 33.212,69.333 33.416 C 69.333 33.475,69.240 33.628,69.125 33.756 C 68.630 34.308,68.500 34.496,68.500 34.660 C 68.500 34.755,68.426 34.833,68.337 34.833 C 68.247 34.833,68.126 35.021,68.068 35.250 C 68.011 35.479,67.897 35.667,67.815 35.667 C 67.734 35.667,67.667 35.779,67.667 35.917 C 67.667 36.054,67.595 36.167,67.508 36.167 C 67.420 36.167,67.299 36.429,67.239 36.750 C 67.179 37.071,67.081 37.333,67.022 37.333 C 66.869 37.333,66.528 38.150,66.394 38.835 C 66.332 39.155,66.218 39.458,66.141 39.509 C 66.064 39.560,65.953 40.067,65.894 40.634 C 65.834 41.202,65.722 41.667,65.643 41.667 C 65.564 41.667,65.500 42.754,65.500 44.083 C 65.500 45.413,65.564 46.500,65.641 46.500 C 65.719 46.500,65.830 47.339,65.889 48.364 C 65.948 49.389,66.060 50.270,66.139 50.322 C 66.218 50.374,66.329 50.771,66.387 51.205 C 66.445 51.638,66.563 52.126,66.649 52.288 C 66.955 52.866,67.333 53.803,67.333 53.984 C 67.333 54.084,67.408 54.167,67.500 54.167 C 67.592 54.167,67.667 54.279,67.667 54.417 C 67.667 54.554,67.733 54.667,67.815 54.667 C 67.896 54.667,68.012 54.929,68.072 55.250 C 68.133 55.571,68.253 55.833,68.341 55.833 C 68.428 55.833,68.500 55.940,68.500 56.069 C 68.500 56.199,68.557 56.331,68.626 56.361 C 68.696 56.392,69.014 56.754,69.333 57.167 C 69.983 58.008,71.588 59.667,71.751 59.667 C 71.809 59.667,71.962 59.760,72.089 59.875 C 72.614 60.346,72.793 60.465,73.138 60.574 C 73.337 60.637,73.500 60.759,73.500 60.845 C 73.500 60.930,73.612 61.000,73.750 61.000 C 73.887 61.000,74.000 61.069,74.000 61.153 C 74.000 61.238,74.224 61.356,74.498 61.416 C 74.772 61.476,75.039 61.595,75.091 61.679 C 75.144 61.764,75.332 61.833,75.510 61.833 C 75.688 61.833,75.833 61.902,75.833 61.985 C 75.833 62.069,76.133 62.188,76.499 62.250 C 76.865 62.312,77.207 62.431,77.259 62.515 C 77.311 62.598,77.559 62.667,77.810 62.667 C 78.061 62.667,78.338 62.737,78.425 62.824 C 79.115 63.507,94.716 63.500,94.972 62.815 C 95.003 62.734,95.242 62.667,95.504 62.667 C 95.766 62.667,96.023 62.598,96.074 62.515 C 96.126 62.431,96.468 62.312,96.834 62.250 C 97.200 62.188,97.500 62.069,97.500 61.985 C 97.500 61.902,97.688 61.833,97.917 61.833 C 98.146 61.833,98.333 61.764,98.333 61.680 C 98.333 61.596,98.558 61.477,98.833 61.417 C 99.108 61.356,99.333 61.238,99.333 61.153 C 99.333 61.069,99.483 61.000,99.667 61.000 C 99.850 61.000,100.000 60.934,100.000 60.853 C 100.000 60.772,100.131 60.658,100.292 60.600 C 100.723 60.444,101.212 60.130,101.674 59.713 C 101.899 59.509,102.402 59.069,102.792 58.735 C 103.181 58.401,103.500 58.064,103.500 57.986 C 103.500 57.909,103.725 57.615,104.000 57.333 C 104.275 57.052,104.500 56.744,104.500 56.649 C 104.500 56.445,104.985 55.929,105.084 56.028 C 105.121 56.065,105.204 56.899,105.267 57.881 C 105.330 58.863,105.446 59.667,105.525 59.667 C 105.603 59.667,105.667 60.154,105.667 60.750 L 105.667 61.833 113.583 61.833 C 118.750 61.833,121.500 61.775,121.500 61.667 C 121.500 61.575,121.808 61.500,122.184 61.500 L 122.869 61.500 122.749 59.958 C 122.683 59.110,122.562 58.392,122.481 58.361 C 122.400 58.331,122.333 57.868,122.333 57.333 C 122.333 56.799,122.256 56.335,122.161 56.304 C 122.051 56.267,121.951 54.430,121.884 51.200 C 121.827 48.424,121.717 46.114,121.640 46.067 C 121.455 45.953,121.458 38.712,121.643 38.598 C 121.722 38.549,121.823 36.366,121.869 33.745 C 121.926 30.499,122.013 28.920,122.143 28.790 C 122.369 28.564,122.417 21.667,122.192 21.667 C 122.114 21.667,121.999 20.828,121.937 19.803 C 121.875 18.778,121.760 17.859,121.682 17.761 C 121.604 17.663,121.488 17.078,121.424 16.460 C 121.360 15.842,121.238 15.294,121.154 15.242 C 121.069 15.190,121.000 14.964,121.000 14.740 C 121.000 14.516,120.935 14.333,120.855 14.333 C 120.775 14.333,120.660 13.958,120.599 13.500 C 120.538 13.042,120.416 12.667,120.328 12.667 C 120.239 12.667,120.167 12.479,120.167 12.250 C 120.167 12.021,120.098 11.833,120.013 11.833 C 119.929 11.833,119.810 11.608,119.750 11.333 C 119.690 11.058,119.571 10.833,119.487 10.833 C 119.402 10.833,119.333 10.683,119.333 10.500 C 119.333 10.317,119.264 10.167,119.180 10.167 C 119.096 10.167,118.977 9.942,118.917 9.667 C 118.856 9.392,118.738 9.167,118.653 9.167 C 118.569 9.167,118.500 9.072,118.500 8.957 C 118.500 8.841,118.313 8.544,118.083 8.297 C 117.854 8.050,117.667 7.786,117.667 7.711 C 117.667 7.531,116.333 6.281,115.727 5.894 C 115.465 5.726,115.165 5.475,115.061 5.336 C 114.956 5.197,114.356 4.821,113.727 4.500 C 113.098 4.179,112.546 3.877,112.500 3.829 C 112.454 3.780,112.079 3.601,111.667 3.431 C 111.254 3.261,110.680 3.019,110.391 2.894 C 110.103 2.769,109.709 2.667,109.516 2.667 C 109.324 2.667,109.167 2.592,109.167 2.500 C 109.167 2.408,108.979 2.333,108.750 2.333 C 108.521 2.333,108.333 2.264,108.333 2.180 C 108.333 2.096,107.846 1.974,107.250 1.911 C 106.654 1.847,106.167 1.728,106.167 1.647 C 106.167 1.566,105.957 1.500,105.700 1.500 C 105.443 1.500,105.162 1.429,105.075 1.343 C 104.988 1.257,104.148 1.134,103.208 1.069 C 102.269 1.005,101.500 0.888,101.500 0.810 C 101.500 0.731,100.792 0.667,99.927 0.667 C 99.057 0.667,98.307 0.592,98.250 0.500 C 98.189 0.402,97.196 0.333,95.833 0.333 C 94.471 0.333,93.477 0.402,93.417 0.500 M0.056 2.819 C 0.152 3.743,0.588 5.145,0.837 5.333 C 0.898 5.379,0.999 5.679,1.061 5.999 C 1.196 6.689,1.536 7.500,1.692 7.500 C 1.752 7.500,1.854 7.875,1.917 8.333 C 1.980 8.792,2.099 9.167,2.182 9.167 C 2.265 9.167,2.333 9.354,2.333 9.583 C 2.333 9.813,2.407 10.000,2.498 10.000 C 2.589 10.000,2.711 10.300,2.769 10.667 C 2.828 11.033,2.941 11.333,3.021 11.333 C 3.101 11.333,3.167 11.521,3.167 11.750 C 3.167 11.979,3.241 12.167,3.331 12.167 C 3.422 12.167,3.544 12.467,3.603 12.833 C 3.661 13.200,3.765 13.500,3.833 13.500 C 3.902 13.500,4.006 13.803,4.065 14.174 C 4.164 14.794,4.441 15.463,4.682 15.667 C 4.736 15.713,4.832 16.012,4.894 16.332 C 5.029 17.022,5.370 17.833,5.525 17.833 C 5.586 17.833,5.687 18.208,5.750 18.667 C 5.813 19.125,5.933 19.500,6.016 19.500 C 6.099 19.500,6.167 19.688,6.167 19.917 C 6.167 20.146,6.241 20.333,6.331 20.333 C 6.422 20.333,6.544 20.633,6.603 21.000 C 6.661 21.367,6.765 21.667,6.833 21.667 C 6.902 21.667,7.005 21.967,7.064 22.333 C 7.123 22.700,7.245 23.000,7.335 23.000 C 7.426 23.000,7.500 23.188,7.500 23.417 C 7.500 23.646,7.565 23.833,7.645 23.833 C 7.725 23.833,7.833 24.101,7.886 24.429 C 7.996 25.106,8.360 26.000,8.525 26.000 C 8.586 26.000,8.687 26.375,8.750 26.833 C 8.813 27.292,8.933 27.667,9.016 27.667 C 9.099 27.667,9.167 27.817,9.167 28.000 C 9.167 28.183,9.237 28.333,9.323 28.333 C 9.409 28.333,9.530 28.671,9.592 29.083 C 9.654 29.496,9.771 29.833,9.852 29.833 C 9.934 29.833,10.000 30.021,10.000 30.250 C 10.000 30.479,10.068 30.667,10.152 30.667 C 10.236 30.667,10.355 30.967,10.417 31.333 C 10.479 31.700,10.598 32.000,10.681 32.000 C 10.765 32.000,10.833 32.157,10.833 32.350 C 10.833 32.668,11.128 33.472,11.511 34.201 C 11.593 34.357,11.709 34.789,11.768 35.159 C 11.827 35.530,11.941 35.833,12.021 35.833 C 12.101 35.833,12.167 35.983,12.167 36.167 C 12.167 36.350,12.233 36.500,12.314 36.500 C 12.396 36.500,12.513 36.837,12.575 37.250 C 12.636 37.663,12.757 38.000,12.844 38.000 C 12.930 38.000,13.000 38.150,13.000 38.333 C 13.000 38.517,13.066 38.667,13.148 38.667 C 13.229 38.667,13.346 39.002,13.407 39.413 C 13.469 39.823,13.590 40.203,13.676 40.256 C 13.763 40.309,13.833 40.499,13.833 40.677 C 13.833 40.854,13.896 41.000,13.972 41.000 C 14.049 41.000,14.122 41.094,14.136 41.208 C 14.220 41.904,14.389 42.500,14.504 42.500 C 14.577 42.500,14.688 42.800,14.750 43.167 C 14.812 43.533,14.931 43.833,15.015 43.833 C 15.098 43.833,15.167 44.021,15.167 44.250 C 15.167 44.479,15.232 44.667,15.312 44.667 C 15.392 44.667,15.506 44.970,15.565 45.341 C 15.666 45.969,15.946 46.640,16.188 46.833 C 16.245 46.879,16.346 47.235,16.411 47.625 C 16.476 48.015,16.598 48.333,16.681 48.333 C 16.765 48.333,16.833 48.483,16.833 48.667 C 16.833 48.850,16.901 49.000,16.984 49.000 C 17.067 49.000,17.187 49.375,17.250 49.833 C 17.313 50.292,17.426 50.667,17.501 50.667 C 17.576 50.667,17.688 50.967,17.750 51.333 C 17.812 51.700,17.931 52.000,18.015 52.000 C 18.098 52.000,18.167 52.188,18.167 52.417 C 18.167 52.646,18.232 52.833,18.312 52.833 C 18.392 52.833,18.505 53.133,18.564 53.500 C 18.623 53.867,18.745 54.167,18.835 54.167 C 18.926 54.167,19.000 54.354,19.000 54.583 C 19.000 54.813,19.065 55.000,19.145 55.000 C 19.225 55.000,19.339 55.303,19.398 55.674 C 19.499 56.303,19.779 56.974,20.021 57.167 C 20.079 57.212,20.182 57.587,20.250 58.000 C 20.318 58.413,20.426 58.788,20.490 58.833 C 20.673 58.965,21.167 60.305,21.167 60.670 C 21.167 60.852,21.242 61.000,21.333 61.000 C 21.425 61.000,21.500 61.188,21.500 61.417 L 21.500 61.833 30.665 61.833 L 39.829 61.833 39.936 61.167 C 39.995 60.800,40.108 60.500,40.188 60.500 C 40.268 60.500,40.333 60.350,40.333 60.167 C 40.333 59.983,40.404 59.833,40.490 59.833 C 40.576 59.833,40.697 59.496,40.759 59.083 C 40.821 58.671,40.938 58.333,41.019 58.333 C 41.100 58.333,41.167 58.146,41.167 57.917 C 41.167 57.688,41.235 57.500,41.319 57.500 C 41.402 57.500,41.521 57.200,41.583 56.834 C 41.645 56.468,41.758 56.130,41.833 56.083 C 41.909 56.037,42.022 55.699,42.083 55.332 C 42.145 54.966,42.264 54.667,42.348 54.667 C 42.432 54.667,42.500 54.479,42.500 54.250 C 42.500 54.021,42.570 53.833,42.656 53.833 C 42.743 53.833,42.864 53.496,42.925 53.083 C 42.987 52.671,43.104 52.333,43.186 52.333 C 43.267 52.333,43.333 52.188,43.333 52.010 C 43.333 51.832,43.400 51.645,43.481 51.595 C 43.562 51.545,43.680 51.231,43.743 50.898 C 43.805 50.565,43.920 50.170,43.997 50.021 C 44.378 49.290,44.667 48.498,44.667 48.183 C 44.667 47.991,44.735 47.833,44.819 47.833 C 44.902 47.833,45.021 47.533,45.083 47.167 C 45.145 46.800,45.264 46.500,45.348 46.500 C 45.432 46.500,45.500 46.313,45.500 46.083 C 45.500 45.854,45.566 45.667,45.648 45.667 C 45.729 45.667,45.846 45.329,45.908 44.917 C 45.970 44.504,46.091 44.167,46.177 44.167 C 46.263 44.167,46.333 44.021,46.333 43.843 C 46.333 43.665,46.404 43.476,46.490 43.423 C 46.577 43.369,46.698 42.990,46.759 42.579 C 46.821 42.169,46.938 41.833,47.019 41.833 C 47.100 41.833,47.167 41.729,47.167 41.602 C 47.167 41.475,47.279 41.157,47.416 40.894 C 47.553 40.631,47.665 40.248,47.666 40.042 C 47.666 39.835,47.742 39.667,47.833 39.667 C 47.925 39.667,48.000 39.479,48.000 39.250 C 48.000 39.021,48.065 38.833,48.145 38.833 C 48.225 38.833,48.339 38.533,48.397 38.167 C 48.456 37.800,48.571 37.500,48.653 37.500 C 48.735 37.500,48.854 37.125,48.917 36.667 C 48.980 36.208,49.081 35.833,49.142 35.833 C 49.307 35.833,49.670 34.939,49.780 34.262 C 49.833 33.935,49.942 33.667,50.022 33.667 C 50.101 33.667,50.167 33.479,50.167 33.250 C 50.167 33.021,50.241 32.833,50.331 32.833 C 50.422 32.833,50.544 32.533,50.603 32.167 C 50.661 31.800,50.775 31.500,50.855 31.500 C 50.935 31.500,51.000 31.313,51.000 31.083 C 51.000 30.854,51.065 30.667,51.145 30.667 C 51.225 30.667,51.339 30.367,51.397 30.000 C 51.456 29.633,51.578 29.333,51.669 29.333 C 51.759 29.333,51.833 29.150,51.833 28.927 C 51.833 28.703,51.904 28.476,51.990 28.423 C 52.077 28.369,52.198 27.990,52.259 27.579 C 52.321 27.169,52.437 26.833,52.517 26.833 C 52.597 26.833,52.711 26.533,52.769 26.167 C 52.828 25.800,52.941 25.500,53.021 25.500 C 53.101 25.500,53.167 25.313,53.167 25.083 C 53.167 24.854,53.241 24.667,53.331 24.667 C 53.422 24.667,53.544 24.367,53.603 24.000 C 53.661 23.633,53.775 23.333,53.855 23.333 C 53.935 23.333,54.000 23.146,54.000 22.917 C 54.000 22.688,54.065 22.500,54.145 22.500 C 54.225 22.500,54.339 22.200,54.397 21.833 C 54.456 21.467,54.578 21.167,54.669 21.167 C 54.759 21.167,54.833 20.984,54.833 20.760 C 54.833 20.536,54.904 20.309,54.990 20.256 C 55.077 20.203,55.198 19.823,55.259 19.413 C 55.321 19.002,55.437 18.667,55.517 18.667 C 55.597 18.667,55.711 18.367,55.769 18.000 C 55.828 17.633,55.941 17.333,56.021 17.333 C 56.101 17.333,56.167 17.146,56.167 16.917 C 56.167 16.688,56.235 16.500,56.319 16.500 C 56.402 16.500,56.521 16.200,56.583 15.833 C 56.645 15.467,56.764 15.167,56.848 15.167 C 56.932 15.167,57.000 14.979,57.000 14.750 C 57.000 14.521,57.065 14.333,57.145 14.333 C 57.225 14.333,57.339 14.033,57.397 13.667 C 57.456 13.300,57.578 13.000,57.669 13.000 C 57.759 13.000,57.833 12.817,57.833 12.593 C 57.833 12.369,57.902 12.144,57.985 12.092 C 58.069 12.041,58.191 11.680,58.256 11.291 C 58.321 10.902,58.426 10.546,58.490 10.500 C 58.673 10.369,59.167 9.028,59.167 8.663 C 59.167 8.482,59.242 8.333,59.333 8.333 C 59.425 8.333,59.500 8.165,59.501 7.958 C 59.502 7.752,59.614 7.369,59.751 7.106 C 59.888 6.843,60.000 6.525,60.000 6.398 C 60.000 6.271,60.075 6.167,60.167 6.167 C 60.258 6.167,60.333 6.009,60.333 5.817 C 60.333 5.491,60.638 4.669,61.028 3.938 C 61.120 3.766,61.237 3.223,61.287 2.730 L 61.380 1.833 52.107 1.833 L 42.833 1.833 42.833 2.250 C 42.833 2.479,42.758 2.667,42.667 2.667 C 42.575 2.667,42.500 2.854,42.500 3.083 C 42.500 3.313,42.430 3.500,42.344 3.500 C 42.257 3.500,42.136 3.837,42.075 4.250 C 42.013 4.662,41.903 5.000,41.830 5.000 C 41.757 5.000,41.646 5.375,41.583 5.833 C 41.520 6.292,41.401 6.667,41.318 6.667 C 41.235 6.667,41.167 6.854,41.167 7.083 C 41.167 7.313,41.099 7.500,41.016 7.500 C 40.933 7.500,40.813 7.875,40.750 8.333 C 40.687 8.792,40.567 9.167,40.484 9.167 C 40.401 9.167,40.333 9.354,40.333 9.583 C 40.333 9.813,40.265 10.000,40.182 10.000 C 40.099 10.000,39.980 10.375,39.917 10.833 C 39.854 11.292,39.734 11.667,39.651 11.667 C 39.568 11.667,39.500 11.854,39.500 12.083 C 39.500 12.313,39.434 12.500,39.352 12.500 C 39.271 12.500,39.154 12.838,39.092 13.250 C 39.030 13.663,38.926 14.000,38.861 14.000 C 38.750 14.000,38.441 14.991,38.224 16.042 C 38.171 16.294,38.069 16.500,37.997 16.500 C 37.924 16.500,37.813 16.875,37.750 17.333 C 37.687 17.792,37.567 18.167,37.484 18.167 C 37.401 18.167,37.333 18.354,37.333 18.583 C 37.333 18.813,37.265 19.000,37.182 19.000 C 37.099 19.000,36.980 19.375,36.917 19.833 C 36.854 20.292,36.734 20.667,36.651 20.667 C 36.568 20.667,36.500 20.850,36.500 21.073 C 36.500 21.297,36.434 21.521,36.352 21.572 C 36.271 21.622,36.153 21.936,36.091 22.269 C 36.028 22.602,35.896 23.034,35.796 23.229 C 35.392 24.019,35.335 24.179,35.232 24.826 C 35.173 25.197,35.066 25.500,34.994 25.500 C 34.923 25.500,34.813 25.875,34.750 26.333 C 34.687 26.792,34.567 27.167,34.484 27.167 C 34.401 27.167,34.333 27.354,34.333 27.583 C 34.333 27.813,34.265 28.000,34.182 28.000 C 34.099 28.000,33.980 28.375,33.917 28.833 C 33.854 29.292,33.734 29.667,33.651 29.667 C 33.568 29.667,33.500 29.854,33.500 30.083 C 33.500 30.313,33.432 30.500,33.349 30.500 C 33.266 30.500,33.146 30.875,33.083 31.333 C 33.020 31.792,32.901 32.167,32.818 32.167 C 32.735 32.167,32.667 32.312,32.667 32.490 C 32.667 32.668,32.596 32.857,32.510 32.911 C 32.423 32.964,32.302 33.344,32.241 33.754 C 32.179 34.164,32.071 34.500,32.000 34.500 C 31.929 34.500,31.831 34.706,31.781 34.958 C 31.628 35.738,31.261 36.912,31.145 37.000 C 31.084 37.046,31.007 37.271,30.975 37.500 C 30.897 38.059,30.596 38.031,30.531 37.458 C 30.502 37.206,30.415 37.000,30.338 37.000 C 30.261 37.000,30.146 36.625,30.083 36.167 C 30.020 35.708,29.901 35.333,29.818 35.333 C 29.735 35.333,29.667 35.146,29.667 34.917 C 29.667 34.688,29.600 34.500,29.519 34.500 C 29.438 34.500,29.320 34.087,29.257 33.583 C 29.194 33.079,29.073 32.667,28.988 32.667 C 28.903 32.667,28.833 32.479,28.833 32.250 C 28.833 32.021,28.765 31.833,28.682 31.833 C 28.599 31.833,28.480 31.458,28.417 31.000 C 28.354 30.542,28.241 30.167,28.167 30.167 C 28.092 30.167,27.980 29.792,27.917 29.334 C 27.854 28.875,27.734 28.458,27.651 28.407 C 27.568 28.356,27.500 28.131,27.500 27.907 C 27.500 27.683,27.432 27.500,27.349 27.500 C 27.266 27.500,27.146 27.125,27.083 26.667 C 27.020 26.208,26.901 25.833,26.818 25.833 C 26.735 25.833,26.667 25.646,26.667 25.417 C 26.667 25.188,26.599 25.000,26.516 25.000 C 26.433 25.000,26.313 24.625,26.250 24.167 C 26.187 23.708,26.067 23.333,25.984 23.333 C 25.901 23.333,25.833 23.108,25.833 22.833 C 25.833 22.558,25.765 22.333,25.682 22.333 C 25.599 22.333,25.480 21.958,25.417 21.500 C 25.354 21.042,25.234 20.667,25.151 20.667 C 25.068 20.667,25.000 20.479,25.000 20.250 C 25.000 20.021,24.932 19.833,24.849 19.833 C 24.766 19.833,24.646 19.458,24.583 19.000 C 24.520 18.542,24.410 18.167,24.339 18.167 C 24.268 18.167,24.160 17.795,24.100 17.340 C 24.040 16.886,23.918 16.469,23.829 16.414 C 23.739 16.359,23.667 16.131,23.667 15.907 C 23.667 15.683,23.599 15.500,23.516 15.500 C 23.433 15.500,23.313 15.125,23.250 14.667 C 23.187 14.208,23.067 13.833,22.984 13.833 C 22.901 13.833,22.833 13.646,22.833 13.417 C 22.833 13.188,22.768 13.000,22.688 13.000 C 22.608 13.000,22.492 12.618,22.430 12.152 C 22.369 11.686,22.246 11.161,22.159 10.985 C 22.072 10.810,21.926 10.520,21.836 10.341 C 21.747 10.161,21.624 9.711,21.565 9.341 C 21.506 8.970,21.392 8.667,21.312 8.667 C 21.232 8.667,21.167 8.479,21.167 8.250 C 21.167 8.021,21.095 7.833,21.008 7.833 C 20.921 7.833,20.799 7.383,20.737 6.833 C 20.675 6.283,20.568 5.833,20.500 5.833 C 20.432 5.833,20.327 5.530,20.268 5.159 C 20.209 4.789,20.096 4.357,20.016 4.201 C 19.709 3.595,19.506 3.060,19.370 2.500 L 19.229 1.917 9.591 1.874 L -0.048 1.831 0.056 2.819 M197.000 2.332 C 197.000 2.608,197.072 2.833,197.159 2.833 C 197.247 2.833,197.368 3.097,197.428 3.419 C 197.488 3.740,197.604 4.045,197.686 4.095 C 197.767 4.145,197.833 4.332,197.833 4.510 C 197.833 4.688,197.902 4.833,197.987 4.833 C 198.071 4.833,198.190 5.058,198.250 5.333 C 198.310 5.608,198.425 5.833,198.506 5.833 C 198.586 5.833,198.701 6.096,198.761 6.417 C 198.821 6.737,198.937 7.000,199.019 7.000 C 199.100 7.000,199.167 7.112,199.167 7.250 C 199.167 7.388,199.242 7.500,199.333 7.500 C 199.425 7.500,199.500 7.574,199.500 7.666 C 199.500 7.935,200.069 9.167,200.193 9.167 C 200.255 9.167,200.356 9.392,200.417 9.667 C 200.477 9.942,200.596 10.167,200.680 10.167 C 200.764 10.167,200.833 10.317,200.833 10.500 C 200.833 10.683,200.902 10.833,200.987 10.833 C 201.071 10.833,201.190 11.058,201.250 11.333 C 201.310 11.608,201.429 11.833,201.513 11.833 C 201.598 11.833,201.667 11.953,201.667 12.099 C 201.667 12.393,202.178 13.385,202.375 13.472 C 202.444 13.503,202.500 13.596,202.500 13.679 C 202.500 13.938,203.072 15.167,203.193 15.167 C 203.255 15.167,203.356 15.392,203.417 15.667 C 203.477 15.942,203.596 16.167,203.680 16.167 C 203.764 16.167,203.833 16.317,203.833 16.500 C 203.833 16.683,203.900 16.833,203.982 16.833 C 204.064 16.833,204.182 17.039,204.245 17.290 C 204.308 17.541,204.413 17.785,204.479 17.832 C 204.637 17.945,206.000 20.780,206.000 20.997 C 206.000 21.090,206.063 21.167,206.140 21.167 C 206.217 21.167,206.423 21.466,206.598 21.831 C 206.773 22.197,206.973 22.497,207.042 22.498 C 207.110 22.499,207.167 22.574,207.167 22.666 C 207.167 22.950,207.739 24.167,207.873 24.167 C 207.943 24.167,208.000 24.241,208.000 24.332 C 208.000 24.601,208.569 25.833,208.693 25.833 C 208.755 25.833,208.856 26.058,208.917 26.333 C 208.977 26.608,209.096 26.833,209.180 26.833 C 209.264 26.833,209.333 26.953,209.333 27.099 C 209.333 27.356,209.810 28.330,210.019 28.500 C 210.076 28.546,210.180 28.771,210.251 29.000 C 210.323 29.229,210.510 29.529,210.668 29.667 C 210.826 29.804,211.009 30.161,211.074 30.458 C 211.140 30.756,211.262 31.000,211.347 31.000 C 211.431 31.000,211.500 31.113,211.500 31.250 C 211.500 31.387,211.572 31.500,211.659 31.500 C 211.747 31.500,211.867 31.762,211.928 32.083 C 211.988 32.404,212.098 32.667,212.172 32.667 C 212.246 32.667,212.356 32.892,212.417 33.167 C 212.477 33.442,212.578 33.667,212.641 33.667 C 212.765 33.667,213.333 34.899,213.333 35.168 C 213.333 35.259,213.408 35.333,213.500 35.333 C 213.592 35.333,213.667 35.446,213.667 35.583 C 213.667 35.721,213.738 35.833,213.826 35.833 C 213.913 35.833,214.034 36.096,214.094 36.417 C 214.155 36.737,214.270 37.000,214.352 37.000 C 214.433 37.000,214.500 37.112,214.500 37.250 C 214.500 37.387,214.575 37.500,214.667 37.500 C 214.758 37.500,214.833 37.574,214.833 37.666 C 214.833 37.950,215.405 39.167,215.539 39.167 C 215.609 39.167,215.667 39.251,215.667 39.355 C 215.667 39.623,216.707 41.727,216.909 41.867 C 217.158 42.040,217.125 44.042,216.872 44.126 C 216.759 44.164,216.667 44.301,216.667 44.431 C 216.667 44.560,216.598 44.667,216.513 44.667 C 216.429 44.667,216.310 44.892,216.250 45.167 C 216.190 45.442,216.079 45.667,216.005 45.667 C 215.931 45.667,215.821 45.929,215.761 46.250 C 215.701 46.571,215.580 46.833,215.492 46.833 C 215.405 46.833,215.333 46.946,215.333 47.083 C 215.333 47.221,215.263 47.333,215.178 47.333 C 215.092 47.333,214.970 47.502,214.905 47.708 C 214.841 47.915,214.738 48.121,214.677 48.167 C 214.522 48.283,214.000 49.427,214.000 49.650 C 214.000 49.751,213.925 49.833,213.833 49.833 C 213.742 49.833,213.667 49.946,213.667 50.083 C 213.667 50.221,213.593 50.333,213.503 50.333 C 213.413 50.333,213.293 50.521,213.235 50.750 C 213.178 50.979,213.080 51.167,213.019 51.167 C 212.957 51.167,212.761 51.542,212.583 52.000 C 212.405 52.458,212.207 52.833,212.143 52.833 C 212.079 52.833,211.976 53.062,211.915 53.341 C 211.854 53.620,211.623 54.029,211.402 54.250 C 211.181 54.471,211.000 54.805,211.000 54.992 C 211.000 55.180,210.925 55.333,210.833 55.333 C 210.742 55.333,210.667 55.446,210.667 55.583 C 210.667 55.721,210.595 55.833,210.508 55.833 C 210.420 55.833,210.299 56.096,210.239 56.417 C 210.179 56.737,210.063 57.000,209.981 57.000 C 209.900 57.000,209.833 57.112,209.833 57.250 C 209.833 57.387,209.760 57.500,209.670 57.500 C 209.580 57.500,209.459 57.688,209.402 57.917 C 209.344 58.146,209.236 58.333,209.162 58.333 C 209.087 58.333,208.977 58.558,208.917 58.833 C 208.856 59.108,208.738 59.333,208.653 59.333 C 208.569 59.333,208.500 59.708,208.500 60.167 C 208.500 60.625,208.425 61.000,208.333 61.000 C 208.080 61.000,208.135 61.658,208.411 61.935 C 208.702 62.226,221.364 62.453,224.244 62.218 L 225.905 62.083 226.060 61.542 C 226.145 61.244,226.279 61.000,226.357 61.000 C 226.436 61.000,226.500 60.887,226.500 60.750 C 226.500 60.612,226.572 60.500,226.659 60.500 C 226.747 60.500,226.867 60.238,226.928 59.917 C 226.988 59.596,227.104 59.333,227.185 59.333 C 227.267 59.333,227.333 59.221,227.333 59.083 C 227.333 58.946,227.405 58.833,227.492 58.833 C 227.580 58.833,227.701 58.571,227.761 58.250 C 227.821 57.929,227.937 57.667,228.019 57.667 C 228.100 57.667,228.167 57.554,228.167 57.417 C 228.167 57.279,228.242 57.167,228.333 57.167 C 228.425 57.167,228.500 57.092,228.500 57.001 C 228.500 56.732,229.069 55.500,229.193 55.500 C 229.255 55.500,229.356 55.275,229.417 55.000 C 229.477 54.725,229.587 54.500,229.661 54.500 C 229.736 54.500,229.845 54.237,229.906 53.917 C 229.966 53.596,230.087 53.333,230.174 53.333 C 230.262 53.333,230.333 53.221,230.333 53.083 C 230.333 52.946,230.405 52.833,230.492 52.833 C 230.580 52.833,230.701 52.571,230.761 52.250 C 230.821 51.929,230.937 51.667,231.019 51.667 C 231.100 51.667,231.167 51.554,231.167 51.417 C 231.167 51.279,231.236 51.167,231.320 51.167 C 231.404 51.167,231.523 50.942,231.583 50.667 C 231.644 50.392,231.762 50.167,231.847 50.167 C 231.931 50.167,232.000 50.017,232.000 49.833 C 232.000 49.650,232.069 49.500,232.153 49.500 C 232.238 49.500,232.356 49.275,232.417 49.000 C 232.477 48.725,232.587 48.500,232.661 48.500 C 232.736 48.500,232.845 48.237,232.906 47.917 C 232.966 47.596,233.087 47.333,233.174 47.333 C 233.262 47.333,233.333 47.221,233.333 47.083 C 233.333 46.946,233.400 46.833,233.482 46.833 C 233.564 46.833,233.678 46.646,233.735 46.417 C 233.793 46.188,233.913 46.000,234.003 46.000 C 234.093 46.000,234.167 45.850,234.167 45.667 C 234.167 45.483,234.236 45.333,234.320 45.333 C 234.404 45.333,234.523 45.108,234.583 44.833 C 234.644 44.558,234.745 44.333,234.807 44.333 C 234.928 44.333,235.500 43.105,235.500 42.846 C 235.500 42.763,235.556 42.669,235.625 42.639 C 235.806 42.558,236.333 41.515,236.333 41.236 C 236.333 41.106,236.402 41.000,236.487 41.000 C 236.571 41.000,236.690 40.775,236.750 40.500 C 236.810 40.225,236.911 40.000,236.974 40.000 C 237.098 40.000,237.667 38.768,237.667 38.499 C 237.667 38.408,237.724 38.333,237.794 38.333 C 237.928 38.333,238.500 37.117,238.500 36.832 C 238.500 36.741,238.575 36.667,238.667 36.667 C 238.758 36.667,238.833 36.554,238.833 36.417 C 238.833 36.279,238.905 36.167,238.992 36.167 C 239.080 36.167,239.201 35.904,239.261 35.583 C 239.321 35.263,239.420 35.000,239.481 35.000 C 239.542 35.000,239.740 34.663,239.921 34.252 C 240.102 33.840,240.298 33.502,240.356 33.502 C 240.415 33.501,240.511 33.243,240.570 32.929 C 240.629 32.615,240.731 32.333,240.797 32.304 C 240.990 32.217,241.500 31.222,241.500 30.933 C 241.500 30.786,241.575 30.667,241.667 30.667 C 241.758 30.667,241.833 30.554,241.833 30.417 C 241.833 30.279,241.905 30.167,241.992 30.167 C 242.080 30.167,242.201 29.904,242.261 29.583 C 242.321 29.262,242.437 29.000,242.519 29.000 C 242.600 29.000,242.667 28.887,242.667 28.750 C 242.667 28.613,242.736 28.500,242.820 28.500 C 242.904 28.500,243.023 28.275,243.083 28.000 C 243.144 27.725,243.254 27.500,243.328 27.500 C 243.402 27.500,243.512 27.237,243.572 26.917 C 243.633 26.596,243.753 26.333,243.841 26.333 C 243.928 26.333,244.000 26.221,244.000 26.083 C 244.000 25.946,244.072 25.833,244.159 25.833 C 244.247 25.833,244.367 25.571,244.428 25.250 C 244.488 24.929,244.604 24.667,244.685 24.667 C 244.767 24.667,244.833 24.554,244.833 24.417 C 244.833 24.279,244.905 24.167,244.992 24.167 C 245.080 24.167,245.201 23.904,245.261 23.583 C 245.321 23.262,245.437 23.000,245.519 23.000 C 245.600 23.000,245.667 22.887,245.667 22.750 C 245.667 22.613,245.742 22.500,245.833 22.500 C 245.925 22.500,246.000 22.393,246.000 22.262 C 246.000 22.131,246.094 21.921,246.208 21.796 C 246.518 21.458,247.000 20.507,247.000 20.236 C 247.000 20.106,247.069 20.000,247.153 20.000 C 247.238 20.000,247.356 19.775,247.417 19.500 C 247.477 19.225,247.596 19.000,247.680 19.000 C 247.764 19.000,247.833 18.850,247.833 18.667 C 247.833 18.483,247.908 18.333,248.000 18.333 C 248.092 18.333,248.167 18.251,248.167 18.150 C 248.167 17.927,248.689 16.783,248.844 16.667 C 248.905 16.621,249.013 16.396,249.084 16.167 C 249.156 15.938,249.391 15.489,249.607 15.170 C 249.823 14.850,250.000 14.457,250.000 14.295 C 250.000 14.133,250.069 14.000,250.153 14.000 C 250.238 14.000,250.356 13.775,250.417 13.500 C 250.477 13.225,250.578 13.000,250.641 13.000 C 250.765 13.000,251.333 11.768,251.333 11.499 C 251.333 11.408,251.391 11.333,251.461 11.333 C 251.595 11.333,252.167 10.117,252.167 9.832 C 252.167 9.741,252.242 9.667,252.333 9.667 C 252.425 9.667,252.500 9.554,252.500 9.417 C 252.500 9.279,252.572 9.167,252.659 9.167 C 252.747 9.167,252.867 8.904,252.928 8.583 C 252.988 8.263,253.104 8.000,253.185 8.000 C 253.267 8.000,253.333 7.888,253.333 7.750 C 253.333 7.612,253.405 7.500,253.492 7.500 C 253.580 7.500,253.701 7.238,253.761 6.917 C 253.821 6.596,253.931 6.333,254.005 6.333 C 254.079 6.333,254.190 6.108,254.250 5.833 C 254.310 5.558,254.429 5.333,254.513 5.333 C 254.598 5.333,254.667 5.221,254.667 5.083 C 254.667 4.946,254.733 4.833,254.815 4.833 C 254.896 4.833,255.012 4.571,255.072 4.250 C 255.133 3.929,255.253 3.667,255.341 3.667 C 255.428 3.667,255.500 3.560,255.500 3.431 C 255.500 3.301,255.573 3.169,255.663 3.139 C 255.752 3.108,255.872 2.851,255.929 2.567 L 256.031 2.052 254.741 1.942 C 253.114 1.805,238.119 1.798,237.764 1.934 C 237.619 1.990,237.500 2.171,237.500 2.337 C 237.500 2.503,237.443 2.664,237.374 2.694 C 237.153 2.791,236.353 4.478,236.239 5.085 C 236.179 5.405,236.063 5.667,235.981 5.667 C 235.900 5.667,235.833 5.779,235.833 5.917 C 235.833 6.054,235.764 6.167,235.680 6.167 C 235.596 6.167,235.477 6.391,235.417 6.665 C 235.357 6.939,235.238 7.206,235.154 7.258 C 235.069 7.310,235.000 7.499,235.000 7.677 C 235.000 7.854,234.933 8.000,234.852 8.000 C 234.770 8.000,234.655 8.262,234.594 8.583 C 234.534 8.904,234.413 9.167,234.326 9.167 C 234.238 9.167,234.167 9.354,234.167 9.583 C 234.167 9.813,234.098 10.000,234.013 10.000 C 233.929 10.000,233.810 10.225,233.750 10.500 C 233.690 10.775,233.590 11.001,233.528 11.001 C 233.467 11.002,233.277 11.452,233.105 12.001 C 232.934 12.551,232.731 13.000,232.655 13.000 C 232.578 13.000,232.463 13.281,232.400 13.625 C 232.337 13.969,232.236 14.287,232.176 14.333 C 232.022 14.450,231.500 15.596,231.500 15.817 C 231.500 15.918,231.425 16.000,231.333 16.000 C 231.242 16.000,231.167 16.188,231.167 16.417 C 231.167 16.646,231.092 16.833,231.000 16.833 C 230.908 16.833,230.833 16.916,230.833 17.016 C 230.833 17.117,230.712 17.473,230.564 17.808 C 229.914 19.272,229.833 19.477,229.833 19.650 C 229.833 19.751,229.762 19.833,229.674 19.833 C 229.587 19.833,229.463 20.115,229.400 20.458 C 229.337 20.802,229.236 21.121,229.176 21.167 C 229.022 21.284,228.500 22.429,228.500 22.650 C 228.500 22.751,228.443 22.833,228.374 22.833 C 228.228 22.833,227.902 23.542,227.741 24.208 C 227.680 24.460,227.564 24.667,227.482 24.667 C 227.400 24.667,227.333 24.817,227.333 25.000 C 227.333 25.183,227.264 25.333,227.180 25.333 C 227.096 25.333,226.977 25.558,226.917 25.833 C 226.856 26.108,226.738 26.333,226.653 26.333 C 226.569 26.333,226.499 26.427,226.497 26.542 C 226.485 27.548,225.882 27.177,225.415 25.875 C 225.242 25.394,225.044 25.000,224.975 25.000 C 224.905 25.000,224.799 24.737,224.739 24.417 C 224.679 24.096,224.563 23.833,224.481 23.833 C 224.400 23.833,224.333 23.688,224.333 23.510 C 224.333 23.332,224.264 23.144,224.179 23.091 C 224.095 23.039,223.976 22.772,223.916 22.498 C 223.856 22.224,223.738 22.000,223.653 22.000 C 223.569 22.000,223.500 21.813,223.500 21.583 C 223.500 21.354,223.428 21.167,223.341 21.167 C 223.253 21.167,223.133 20.904,223.072 20.583 C 223.012 20.262,222.896 20.000,222.815 20.000 C 222.733 20.000,222.667 19.880,222.667 19.734 C 222.667 19.587,222.563 19.231,222.436 18.942 C 222.310 18.653,222.085 18.143,221.936 17.808 C 221.788 17.473,221.667 17.117,221.667 17.016 C 221.667 16.916,221.592 16.833,221.500 16.833 C 221.408 16.833,221.333 16.646,221.333 16.417 C 221.333 16.188,221.262 16.000,221.174 16.000 C 221.087 16.000,220.966 15.737,220.905 15.415 C 220.845 15.093,220.729 14.789,220.648 14.738 C 220.566 14.688,220.500 14.501,220.500 14.323 C 220.500 14.146,220.426 14.000,220.335 14.000 C 220.245 14.000,220.123 13.700,220.064 13.333 C 220.005 12.967,219.892 12.667,219.812 12.667 C 219.732 12.667,219.667 12.554,219.667 12.417 C 219.667 12.279,219.601 12.167,219.521 12.167 C 219.441 12.167,219.328 11.867,219.269 11.500 C 219.211 11.133,219.089 10.833,218.998 10.833 C 218.907 10.833,218.833 10.702,218.832 10.542 C 218.832 10.381,218.719 10.035,218.582 9.773 C 218.445 9.510,218.333 9.191,218.333 9.064 C 218.333 8.937,218.266 8.833,218.185 8.833 C 218.103 8.833,217.986 8.627,217.925 8.375 C 217.765 7.712,217.439 7.000,217.295 7.000 C 217.226 7.000,217.123 6.700,217.064 6.333 C 217.005 5.967,216.892 5.667,216.812 5.667 C 216.732 5.667,216.667 5.517,216.667 5.333 C 216.667 5.150,216.593 5.000,216.502 5.000 C 216.411 5.000,216.289 4.700,216.231 4.333 C 216.172 3.967,216.067 3.667,215.997 3.667 C 215.927 3.667,215.818 3.461,215.755 3.210 C 215.692 2.959,215.590 2.715,215.528 2.668 C 215.467 2.622,215.334 2.433,215.232 2.250 C 215.051 1.924,214.851 1.916,206.024 1.874 L 197.000 1.830 197.000 2.332 M104.801 37.305 C 104.829 37.687,104.923 38.000,105.010 38.000 C 105.223 38.000,105.214 41.618,105.000 41.750 C 104.908 41.807,104.833 42.191,104.833 42.604 C 104.833 43.425,104.383 45.000,104.147 45.000 C 104.066 45.000,104.000 45.083,104.000 45.185 C 104.000 45.580,101.862 47.500,101.125 47.767 C 100.965 47.825,100.833 47.938,100.833 48.019 C 100.833 48.100,100.690 48.167,100.514 48.167 C 100.338 48.167,100.169 48.223,100.139 48.292 C 100.058 48.473,99.015 49.000,98.736 49.000 C 98.606 49.000,98.500 49.074,98.500 49.165 C 98.500 49.255,98.200 49.377,97.833 49.436 C 97.467 49.495,97.167 49.608,97.167 49.688 C 97.167 49.768,96.979 49.833,96.750 49.833 C 96.521 49.833,96.333 49.902,96.333 49.987 C 96.333 50.071,95.845 50.192,95.248 50.256 C 94.651 50.320,94.121 50.439,94.071 50.520 C 93.954 50.709,90.215 50.713,90.099 50.525 C 90.050 50.446,89.502 50.335,88.881 50.277 C 88.260 50.219,87.726 50.095,87.695 50.002 C 87.664 49.909,87.458 49.833,87.236 49.833 C 87.015 49.833,86.833 49.764,86.833 49.680 C 86.833 49.596,86.590 49.473,86.292 49.408 C 85.994 49.342,85.652 49.149,85.532 48.978 C 85.412 48.807,85.233 48.667,85.134 48.667 C 84.866 48.667,84.054 47.766,83.912 47.312 C 83.844 47.094,83.705 46.863,83.603 46.797 C 83.483 46.721,83.417 45.985,83.417 44.749 C 83.417 43.513,83.483 42.778,83.603 42.702 C 83.705 42.637,83.846 42.400,83.916 42.176 C 84.050 41.747,85.726 40.000,86.004 40.000 C 86.093 40.000,86.167 39.926,86.167 39.837 C 86.167 39.747,86.354 39.626,86.583 39.568 C 86.813 39.511,87.000 39.397,87.000 39.315 C 87.000 39.234,87.188 39.167,87.417 39.167 C 87.646 39.167,87.833 39.099,87.833 39.016 C 87.833 38.933,88.208 38.813,88.667 38.750 C 89.125 38.687,89.500 38.567,89.500 38.484 C 89.500 38.401,89.756 38.333,90.069 38.333 C 90.383 38.333,90.664 38.263,90.694 38.177 C 90.725 38.091,91.594 37.968,92.625 37.903 C 93.656 37.839,94.500 37.729,94.500 37.660 C 94.500 37.591,96.002 37.479,97.837 37.412 C 99.672 37.345,101.214 37.225,101.263 37.145 C 101.313 37.065,101.761 37.000,102.260 37.000 C 102.759 37.000,103.167 36.930,103.167 36.843 C 103.167 36.703,104.163 36.521,104.583 36.584 C 104.675 36.598,104.773 36.922,104.801 37.305 "
              stroke="none" fill="#04a4e4" fill-rule="evenodd"></path>
        <path id="path1"
              d="M280.333 1.645 C 280.333 1.725,279.958 1.840,279.500 1.901 C 279.042 1.962,278.667 2.084,278.667 2.172 C 278.667 2.261,278.554 2.333,278.417 2.333 C 278.279 2.333,278.167 2.400,278.167 2.482 C 278.167 2.564,277.979 2.678,277.750 2.735 C 277.521 2.793,277.333 2.913,277.333 3.003 C 277.333 3.093,277.233 3.167,277.111 3.167 C 276.895 3.167,276.000 4.056,276.000 4.271 C 276.000 4.330,275.813 4.552,275.583 4.765 C 275.354 4.977,275.167 5.267,275.167 5.409 C 275.167 5.551,275.095 5.667,275.008 5.667 C 274.920 5.667,274.797 5.948,274.734 6.292 C 274.670 6.635,274.536 6.970,274.434 7.036 C 274.301 7.122,274.250 14.057,274.250 32.083 C 274.250 50.109,274.301 57.045,274.434 57.131 C 274.536 57.196,274.670 57.531,274.734 57.875 C 274.797 58.219,274.920 58.500,275.008 58.500 C 275.095 58.500,275.167 58.616,275.167 58.758 C 275.167 58.900,275.354 59.190,275.583 59.402 C 275.813 59.614,276.000 59.842,276.000 59.907 C 276.000 60.095,276.955 61.000,277.154 61.000 C 277.253 61.000,277.333 61.074,277.333 61.163 C 277.333 61.253,277.521 61.374,277.750 61.432 C 277.979 61.489,278.167 61.603,278.167 61.685 C 278.167 61.766,278.279 61.833,278.417 61.833 C 278.554 61.833,278.667 61.906,278.667 61.994 C 278.667 62.083,279.042 62.205,279.500 62.266 C 279.958 62.327,280.333 62.442,280.333 62.521 C 280.333 62.604,299.953 62.667,325.500 62.667 C 350.934 62.667,370.667 62.603,370.667 62.522 C 370.667 62.442,370.984 62.335,371.371 62.283 C 371.759 62.231,372.103 62.108,372.135 62.011 C 372.168 61.913,372.338 61.833,372.514 61.833 C 372.690 61.833,372.833 61.766,372.833 61.685 C 372.833 61.603,373.021 61.489,373.250 61.432 C 373.479 61.374,373.667 61.253,373.667 61.163 C 373.667 61.074,373.747 61.000,373.846 61.000 C 373.945 61.000,374.251 60.775,374.526 60.500 C 374.801 60.225,375.093 60.000,375.175 60.000 C 375.257 60.000,375.999 59.325,376.824 58.500 C 377.649 57.675,378.406 57.000,378.507 57.000 C 378.607 57.000,378.928 56.738,379.220 56.417 C 379.867 55.705,380.087 55.476,380.367 55.216 C 380.486 55.106,380.673 54.919,380.784 54.800 C 380.894 54.681,381.081 54.492,381.200 54.380 C 381.319 54.268,381.492 54.100,381.583 54.007 C 381.675 53.913,381.994 53.606,382.292 53.322 C 382.590 53.039,382.833 52.744,382.833 52.665 C 382.833 52.587,382.979 52.476,383.158 52.419 C 383.337 52.363,383.528 52.174,383.583 52.000 C 383.639 51.826,383.826 51.639,384.000 51.583 C 384.174 51.528,384.363 51.337,384.419 51.158 C 384.476 50.979,384.639 50.833,384.781 50.833 C 384.923 50.833,386.528 49.352,388.346 47.542 C 390.164 45.731,391.749 44.160,391.868 44.050 C 391.986 43.939,392.175 43.752,392.287 43.633 C 392.399 43.514,392.577 43.332,392.681 43.228 C 392.786 43.124,393.273 42.636,393.763 42.144 C 394.253 41.652,394.751 41.160,394.869 41.050 C 394.987 40.939,395.175 40.752,395.287 40.633 C 395.399 40.514,395.567 40.342,395.660 40.250 C 396.670 39.253,398.000 37.823,398.000 37.733 C 398.000 37.671,398.225 37.404,398.500 37.142 C 398.775 36.879,399.000 36.552,399.000 36.415 C 399.000 36.279,399.075 36.167,399.167 36.167 C 399.258 36.167,399.333 36.054,399.333 35.917 C 399.333 35.779,399.395 35.667,399.471 35.667 C 399.745 35.667,400.000 33.937,400.000 32.079 C 400.000 30.151,399.763 28.500,399.486 28.500 C 399.402 28.500,399.333 28.387,399.333 28.250 C 399.333 28.113,399.262 28.000,399.174 28.000 C 399.087 28.000,398.966 27.740,398.907 27.422 C 398.841 27.072,398.678 26.806,398.491 26.747 C 398.322 26.694,398.139 26.507,398.083 26.333 C 398.028 26.159,397.841 25.972,397.667 25.917 C 397.493 25.861,397.301 25.659,397.240 25.467 C 397.179 25.275,395.600 23.591,393.731 21.725 C 391.862 19.859,390.333 18.225,390.333 18.094 C 390.333 17.963,390.183 17.808,390.000 17.750 C 389.817 17.692,389.667 17.574,389.667 17.489 C 389.667 17.403,389.592 17.333,389.501 17.333 C 389.410 17.333,387.685 15.683,385.667 13.667 C 383.649 11.650,381.924 10.000,381.834 10.000 C 381.744 10.000,381.114 9.438,380.433 8.750 C 379.752 8.063,379.144 7.500,379.083 7.500 C 379.021 7.500,378.555 7.087,378.047 6.583 C 377.539 6.079,377.051 5.667,376.963 5.667 C 376.875 5.667,376.476 5.329,376.075 4.917 C 375.674 4.504,375.267 4.167,375.172 4.167 C 375.076 4.167,374.835 3.979,374.636 3.750 C 374.436 3.521,374.191 3.333,374.090 3.333 C 373.990 3.333,373.779 3.183,373.622 3.000 C 373.465 2.817,373.223 2.667,373.085 2.667 C 372.947 2.667,372.833 2.592,372.833 2.500 C 372.833 2.408,372.691 2.333,372.518 2.333 C 372.344 2.333,372.159 2.221,372.106 2.083 C 372.054 1.946,371.896 1.833,371.755 1.833 C 371.615 1.833,371.500 1.758,371.500 1.667 C 371.500 1.556,356.194 1.500,325.917 1.500 C 300.133 1.500,280.333 1.563,280.333 1.645 M312.250 21.917 L 312.250 25.250 305.833 25.333 L 299.417 25.417 299.371 27.956 L 299.325 30.495 304.704 30.539 L 310.083 30.583 310.083 33.917 L 310.083 37.250 304.750 37.333 L 299.417 37.417 299.417 40.000 L 299.417 42.583 305.833 42.667 L 312.250 42.750 312.250 46.083 L 312.250 49.417 304.365 49.460 C 294.867 49.512,294.344 49.418,292.975 47.412 C 291.970 45.941,291.987 46.186,292.037 33.410 L 292.083 21.750 292.470 21.083 C 293.147 19.917,294.076 19.207,295.583 18.701 C 295.895 18.597,299.122 18.543,304.167 18.559 L 312.250 18.583 312.250 21.917 M333.784 18.797 C 339.642 20.481,340.805 27.880,336.060 33.276 C 333.633 36.034,333.446 36.465,334.139 37.703 C 334.307 38.004,334.643 38.605,334.885 39.039 C 335.126 39.473,335.654 40.411,336.058 41.123 C 336.462 41.834,336.939 42.679,337.119 43.000 C 337.865 44.333,338.576 45.609,338.790 46.000 C 338.915 46.229,339.152 46.642,339.315 46.917 C 340.176 48.367,340.642 49.302,340.549 49.396 C 340.333 49.611,332.050 49.512,331.875 49.292 C 331.783 49.177,331.165 48.033,330.501 46.750 C 329.837 45.467,328.660 43.195,327.886 41.703 C 326.289 38.622,325.843 37.438,325.837 36.262 C 325.830 34.719,325.728 34.886,330.625 28.453 C 333.085 25.222,333.022 25.167,326.895 25.167 L 322.502 25.167 322.459 37.292 L 322.417 49.417 318.833 49.417 L 315.250 49.417 315.207 33.955 L 315.165 18.494 324.124 18.545 C 330.495 18.581,333.286 18.654,333.784 18.797 M360.383 18.798 C 365.520 20.053,368.157 24.050,367.773 30.000 C 367.294 37.413,364.217 39.890,355.211 40.111 L 351.172 40.210 351.128 44.814 L 351.083 49.417 347.500 49.417 L 343.917 49.417 343.874 34.167 C 343.850 25.779,343.867 18.821,343.911 18.705 C 344.021 18.418,359.179 18.503,360.383 18.798 M351.167 29.346 L 351.167 33.359 353.375 33.273 C 358.964 33.057,360.067 32.401,360.078 29.285 C 360.089 26.153,358.753 25.333,353.639 25.333 L 351.167 25.333 351.167 29.346 "
              stroke="none" fill="#fbfbfb" fill-rule="evenodd"></path>
        <path id="path2"
              d="M295.374 18.952 C 294.281 19.274,293.106 20.280,292.615 21.315 C 292.101 22.397,292.032 45.375,292.541 46.250 C 292.700 46.525,292.832 46.811,292.832 46.885 C 292.835 47.193,294.258 48.508,294.976 48.865 C 295.749 49.249,295.764 49.250,303.962 49.299 L 312.174 49.348 312.129 46.132 L 312.083 42.917 305.667 42.833 L 299.250 42.750 299.250 40.000 L 299.250 37.250 304.583 37.167 L 309.917 37.083 309.962 33.875 L 310.007 30.667 304.583 30.667 L 299.158 30.667 299.204 27.958 L 299.250 25.250 305.667 25.167 L 312.083 25.083 312.129 21.875 L 312.174 18.667 304.212 18.680 C 297.538 18.691,296.108 18.735,295.374 18.952 M315.333 33.993 L 315.333 49.333 318.833 49.333 L 322.333 49.333 322.333 37.167 L 322.333 25.000 326.894 25.000 L 331.455 25.000 331.894 25.439 C 332.461 26.006,332.239 26.954,331.334 27.833 C 331.257 27.908,329.754 29.874,328.926 30.983 C 328.747 31.221,328.154 31.979,327.608 32.667 C 325.494 35.326,325.464 36.623,327.430 40.417 C 327.905 41.333,328.875 43.208,329.586 44.583 C 330.296 45.958,331.139 47.590,331.460 48.208 L 332.042 49.333 336.188 49.333 C 338.798 49.333,340.333 49.273,340.333 49.169 C 340.333 49.079,340.114 48.648,339.845 48.211 C 339.332 47.377,338.620 46.094,337.970 44.833 C 337.758 44.421,337.546 44.046,337.500 44.000 C 337.454 43.954,337.335 43.767,337.235 43.583 C 336.547 42.323,335.917 41.201,335.738 40.917 C 332.977 36.547,332.981 36.496,336.352 32.650 C 339.819 28.694,339.608 22.735,335.904 20.000 C 335.591 19.769,335.252 19.595,333.917 18.980 C 333.515 18.795,331.633 18.740,324.375 18.702 L 315.333 18.653 315.333 33.993 M344.000 33.990 L 344.000 49.333 347.497 49.333 L 350.995 49.333 351.039 44.625 L 351.083 39.917 355.417 39.818 C 360.186 39.709,360.901 39.598,362.920 38.652 C 366.811 36.830,368.950 29.575,367.018 24.750 C 366.078 22.401,364.768 20.849,362.958 19.937 C 360.656 18.777,360.773 18.790,351.958 18.715 L 344.000 18.646 344.000 33.990 M358.167 25.622 C 359.666 26.298,360.323 27.357,360.330 29.104 C 360.342 32.424,358.977 33.333,353.981 33.333 L 351.000 33.333 351.000 29.361 C 351.000 27.176,351.056 25.331,351.125 25.260 C 351.417 24.960,357.380 25.266,358.167 25.622 "
              stroke="none" fill="#040404" fill-rule="evenodd"></path>
        <path id="path3"
              d="M295.891 18.627 C 295.785 18.694,299.405 18.729,303.936 18.702 L 312.174 18.655 312.129 21.869 L 312.083 25.083 305.667 25.167 L 299.250 25.250 299.204 27.958 L 299.158 30.667 304.583 30.667 L 310.007 30.667 309.962 33.875 L 309.917 37.083 304.583 37.167 L 299.250 37.250 299.250 40.000 L 299.250 42.750 305.667 42.833 L 312.083 42.917 312.129 46.132 L 312.174 49.348 303.930 49.299 C 299.395 49.272,295.840 49.307,296.028 49.377 C 296.217 49.446,299.944 49.484,304.311 49.460 L 312.250 49.417 312.250 46.083 L 312.250 42.750 305.833 42.667 L 299.417 42.583 299.417 40.000 L 299.417 37.417 304.706 37.373 L 309.995 37.329 310.087 36.956 C 310.137 36.751,310.157 35.233,310.131 33.583 L 310.083 30.583 304.704 30.539 L 299.325 30.495 299.371 27.956 L 299.417 25.417 305.833 25.333 L 312.250 25.250 312.250 21.917 L 312.250 18.583 304.167 18.543 C 299.721 18.521,295.997 18.559,295.891 18.627 M315.243 18.708 C 315.200 18.823,315.183 25.779,315.207 34.167 L 315.250 49.417 318.792 49.422 L 322.334 49.427 318.833 49.377 L 315.333 49.327 315.333 33.991 L 315.333 18.656 324.318 18.703 C 329.259 18.729,333.215 18.695,333.109 18.628 C 332.746 18.397,315.332 18.475,315.243 18.708 M343.910 18.708 C 343.866 18.823,343.850 25.779,343.874 34.167 L 343.917 49.417 347.500 49.417 L 351.083 49.417 351.128 44.792 L 351.172 40.167 354.378 40.157 C 356.141 40.152,357.883 40.085,358.250 40.008 C 358.669 39.920,357.461 39.877,355.000 39.893 L 351.083 39.917 351.039 44.625 L 350.995 49.333 347.497 49.333 L 344.000 49.333 344.000 33.991 L 344.000 18.649 351.901 18.699 C 356.247 18.727,359.715 18.695,359.609 18.628 C 359.246 18.397,343.999 18.475,343.910 18.708 M294.417 19.129 C 293.580 19.610,292.590 20.765,292.283 21.621 C 291.831 22.876,291.924 45.411,292.385 46.393 C 292.551 46.747,292.726 46.997,292.774 46.948 C 292.822 46.900,292.724 46.573,292.556 46.222 C 292.034 45.133,292.088 22.423,292.615 21.315 C 293.036 20.427,294.240 19.298,295.036 19.043 C 295.392 18.929,295.467 18.863,295.250 18.855 C 295.067 18.848,294.692 18.971,294.417 19.129 M334.000 19.029 C 334.229 19.125,334.628 19.314,334.887 19.451 C 335.145 19.587,335.396 19.660,335.444 19.611 C 335.552 19.504,334.105 18.829,333.801 18.845 C 333.681 18.851,333.771 18.934,334.000 19.029 M360.417 19.000 C 360.600 19.079,360.901 19.149,361.086 19.155 C 361.272 19.161,362.003 19.458,362.711 19.814 C 363.420 20.170,364.000 20.414,364.000 20.356 C 363.999 20.201,362.377 19.399,361.453 19.095 C 360.583 18.810,359.809 18.739,360.417 19.000 M335.667 19.792 C 335.667 19.867,335.880 20.054,336.140 20.208 C 336.757 20.572,337.656 21.683,338.115 22.648 C 338.316 23.071,338.485 23.320,338.490 23.202 C 338.509 22.789,337.796 21.613,337.033 20.797 C 336.263 19.974,335.667 19.535,335.667 19.792 M364.833 21.288 C 365.246 21.752,365.642 22.140,365.713 22.150 C 365.950 22.181,365.140 21.210,364.607 20.822 C 364.164 20.501,364.199 20.573,364.833 21.288 M366.304 23.254 C 366.585 23.802,366.858 24.392,366.911 24.566 C 366.964 24.739,367.050 24.839,367.102 24.787 C 367.233 24.656,366.347 22.719,366.041 22.465 C 365.904 22.352,366.023 22.707,366.304 23.254 M338.612 24.083 C 338.763 24.922,338.760 27.535,338.608 28.417 C 338.510 28.983,338.524 29.033,338.696 28.750 C 338.827 28.534,338.899 27.657,338.899 26.250 C 338.899 24.843,338.827 23.966,338.696 23.750 C 338.524 23.467,338.511 23.518,338.612 24.083 M322.333 25.125 C 322.333 25.194,324.345 25.229,326.804 25.203 C 332.404 25.145,332.874 25.328,331.659 27.095 C 331.379 27.501,331.211 27.831,331.284 27.828 C 331.458 27.821,332.333 26.376,332.333 26.096 C 332.333 25.976,332.136 25.681,331.894 25.439 L 331.455 25.000 326.894 25.000 C 324.386 25.000,322.333 25.056,322.333 25.125 M351.083 25.358 C 351.034 25.486,351.015 27.351,351.042 29.503 L 351.090 33.417 351.128 29.355 L 351.167 25.293 354.292 25.372 C 356.010 25.416,357.567 25.505,357.750 25.572 L 358.083 25.692 357.750 25.478 C 357.240 25.152,351.204 25.043,351.083 25.358 M367.225 25.642 C 367.743 28.359,367.741 30.218,367.218 32.917 C 367.165 33.192,367.171 33.371,367.231 33.315 C 367.908 32.693,367.902 25.792,367.225 25.179 C 367.166 25.126,367.167 25.335,367.225 25.642 M358.333 25.729 C 358.333 25.774,358.558 25.971,358.833 26.167 C 359.108 26.362,359.333 26.459,359.333 26.381 C 359.333 26.302,359.108 26.106,358.833 25.943 C 358.558 25.781,358.333 25.684,358.333 25.729 M359.605 26.750 C 360.045 28.089,360.237 28.540,360.293 28.370 C 360.329 28.262,360.164 27.779,359.927 27.295 C 359.689 26.812,359.545 26.567,359.605 26.750 M329.722 29.685 C 329.004 30.612,328.337 31.456,328.239 31.560 C 327.762 32.071,326.167 34.339,326.167 34.508 C 326.167 34.614,326.412 34.336,326.712 33.892 C 327.012 33.447,327.594 32.662,328.004 32.146 C 330.122 29.486,331.238 28.000,331.117 28.000 C 331.067 28.000,330.440 28.758,329.722 29.685 M338.230 29.605 C 338.033 30.399,337.339 31.524,336.352 32.650 C 334.975 34.221,333.801 35.690,333.868 35.757 C 333.901 35.790,334.299 35.351,334.754 34.783 C 335.209 34.215,335.881 33.426,336.249 33.031 C 337.476 31.708,338.738 29.515,338.441 29.219 C 338.391 29.169,338.296 29.342,338.230 29.605 M360.073 30.458 C 360.017 30.710,359.936 31.029,359.893 31.167 C 359.841 31.329,359.869 31.358,359.973 31.250 C 360.157 31.057,360.405 30.000,360.266 30.000 C 360.215 30.000,360.128 30.206,360.073 30.458 M359.321 31.933 C 358.776 32.518,357.790 32.952,356.583 33.139 C 355.676 33.279,355.647 33.295,356.273 33.313 C 357.350 33.345,358.560 32.874,359.271 32.146 C 359.617 31.791,359.861 31.500,359.813 31.500 C 359.764 31.500,359.543 31.695,359.321 31.933 M367.000 33.543 C 367.000 33.566,366.926 33.842,366.836 34.157 C 366.745 34.476,366.740 34.659,366.824 34.572 C 367.013 34.379,367.240 33.500,367.101 33.500 C 367.046 33.500,367.000 33.519,367.000 33.543 M325.934 35.097 C 325.793 35.466,325.813 37.209,325.961 37.443 C 326.028 37.549,326.083 37.005,326.083 36.234 C 326.083 34.713,326.083 34.710,325.934 35.097 M366.118 35.662 C 365.863 36.117,365.535 36.608,365.390 36.753 C 365.245 36.897,365.169 37.058,365.221 37.110 C 365.320 37.209,366.667 35.219,366.667 34.974 C 366.667 34.725,366.592 34.818,366.118 35.662 M333.584 36.330 C 333.527 36.511,333.557 36.793,333.651 36.955 C 333.792 37.196,333.824 37.135,333.828 36.625 C 333.834 35.934,333.744 35.826,333.584 36.330 M333.833 37.412 C 333.833 37.590,334.547 38.842,334.612 38.777 C 334.687 38.702,334.012 37.333,333.900 37.333 C 333.863 37.333,333.833 37.369,333.833 37.412 M363.884 38.096 L 363.417 38.526 363.958 38.227 C 364.256 38.063,364.500 37.869,364.500 37.797 C 364.500 37.584,364.377 37.643,363.884 38.096 M326.172 38.000 C 326.172 38.137,326.244 38.362,326.333 38.500 C 326.477 38.722,326.495 38.722,326.495 38.500 C 326.495 38.362,326.422 38.137,326.333 38.000 C 326.190 37.778,326.172 37.778,326.172 38.000 M362.745 38.725 C 362.565 38.849,362.202 39.003,361.939 39.067 C 361.676 39.131,361.505 39.228,361.560 39.282 C 361.681 39.403,363.125 38.868,363.258 38.654 C 363.397 38.428,363.123 38.466,362.745 38.725 M326.500 38.958 C 326.500 39.038,326.609 39.249,326.742 39.426 C 326.975 39.739,326.980 39.737,326.888 39.372 C 326.793 38.996,326.500 38.683,326.500 38.958 M335.188 39.958 C 335.480 40.485,335.882 41.179,336.080 41.500 C 336.279 41.821,336.494 42.225,336.558 42.399 C 336.622 42.572,336.717 42.672,336.768 42.620 C 336.820 42.569,336.443 41.797,335.931 40.905 C 335.419 40.013,335.000 39.220,335.000 39.142 C 335.000 39.064,334.923 39.000,334.828 39.000 C 334.734 39.000,334.896 39.431,335.188 39.958 M360.352 39.513 C 359.950 39.593,359.575 39.704,359.519 39.761 C 359.359 39.923,361.064 39.646,361.242 39.481 C 361.425 39.310,361.377 39.312,360.352 39.513 M327.000 39.928 C 327.000 39.980,327.539 41.049,328.197 42.303 C 328.856 43.557,329.499 44.790,329.626 45.042 C 329.882 45.548,330.059 45.669,329.869 45.208 C 329.803 45.048,329.268 43.979,328.681 42.833 C 328.093 41.688,327.506 40.544,327.377 40.292 C 327.157 39.862,327.000 39.711,327.000 39.928 M337.129 43.413 C 337.287 43.731,337.471 43.994,337.538 43.996 C 337.605 43.998,337.530 43.739,337.371 43.421 C 337.213 43.102,337.029 42.840,336.962 42.837 C 336.895 42.835,336.970 43.094,337.129 43.413 M337.674 44.292 C 337.678 44.360,337.862 44.717,338.084 45.083 C 338.305 45.450,338.617 46.012,338.777 46.333 C 338.936 46.654,339.352 47.387,339.700 47.961 C 340.048 48.536,340.333 49.080,340.333 49.170 C 340.333 49.489,332.054 49.380,331.931 49.059 C 331.873 48.909,331.779 48.832,331.722 48.889 C 331.227 49.384,332.085 49.500,336.243 49.500 C 340.844 49.500,340.799 49.508,340.349 48.766 C 340.177 48.482,339.835 47.875,339.589 47.417 C 339.344 46.958,338.921 46.208,338.650 45.750 C 338.379 45.292,338.086 44.748,337.999 44.542 C 337.847 44.179,337.659 44.035,337.674 44.292 M330.000 45.751 C 330.000 45.881,331.362 48.396,331.534 48.583 C 331.746 48.815,331.515 48.219,331.114 47.500 C 330.935 47.179,330.641 46.635,330.461 46.292 C 330.162 45.721,330.000 45.531,330.000 45.751 M292.979 47.458 C 293.181 47.834,293.810 48.403,294.304 48.658 C 294.517 48.768,294.297 48.478,293.814 48.013 C 292.862 47.095,292.739 47.013,292.979 47.458 "
              stroke="none" fill="#a4595e" fill-rule="evenodd"></path>
        <path id="path4"
              d="M322.412 37.333 C 322.412 43.979,322.433 46.698,322.458 43.375 C 322.484 40.052,322.484 34.615,322.458 31.292 C 322.433 27.969,322.412 30.688,322.412 37.333 M360.196 29.111 C 360.180 29.493,360.124 29.943,360.071 30.111 C 359.981 30.398,359.986 30.399,360.164 30.123 C 360.267 29.961,360.324 29.511,360.289 29.123 L 360.225 28.417 360.196 29.111 M356.042 33.115 C 356.202 33.157,356.465 33.157,356.625 33.115 C 356.785 33.073,356.654 33.039,356.333 33.039 C 356.012 33.039,355.881 33.073,356.042 33.115 "
              stroke="none" fill="#40a8f4" fill-rule="evenodd"></path>
    </g>
</svg>